<svg xmlns="http://www.w3.org/2000/svg" xmlns:xlink="http://www.w3.org/1999/xlink" viewBox="0,0,256,256" width="60px" height="60px"><g fill="#e0e5f1" fill-rule="evenodd" stroke="none" stroke-width="1" stroke-linecap="butt" stroke-linejoin="miter" stroke-miterlimit="10" stroke-dasharray="" stroke-dashoffset="0" font-family="none" font-weight="none" font-size="none" text-anchor="none" style="mix-blend-mode: normal"><g transform="scale(3.55556,3.55556)"><path d="M31.772,37.871c0.54,0 1.728,0.208 1.728,1.752c0,1.542 -1.513,1.625 -1.728,1.625h-2.486v-3.377z"></path><path d="M32.819,33.979c0,1.147 -1.019,1.341 -1.325,1.341h-2.244v-2.57h2.04c0.203,0 1.529,0.081 1.529,1.229z"></path><path d="M42.949,35c0.789,0.006 1.262,0.193 1.633,0.515c0.372,0.322 0.594,0.837 0.668,1.482h-4.749c-0.031,-1.04 1.164,-2.006 2.448,-1.997z"></path><path d="M48.586,15c5.199,0 9.414,4.215 9.414,9.414v25.172c0,5.199 -4.215,9.414 -9.414,9.414h-25.172c-5.199,0 -9.414,-4.215 -9.414,-9.414v-25.172c0,-5.199 4.215,-9.414 9.414,-9.414zM40.325,29.25c-0.484,0 -0.875,0.392 -0.875,0.875c0,0.483 0.391,0.875 0.875,0.875h5.25c0.484,0 0.875,-0.392 0.875,-0.875c0,-0.483 -0.391,-0.875 -0.875,-0.875zM32.362,43.769c0.546,-0.001 4.638,-0.163 4.638,-3.936c0,-2.434 -1.501,-3.231 -2.319,-3.512c0.545,-0.281 1.458,-0.988 1.458,-2.879c0,-3.557 -3.369,-3.442 -4.05,-3.442h-6.276v13.769zM47.99,39.673c0.107,-3.029 -0.533,-6.923 -5.12,-6.923c-1.298,0 -5.12,0.6 -5.12,5.625c0,4.65 3.533,5.625 5.264,5.625c2.624,0 4.355,-1.844 4.835,-3.461h-2.715c-0.387,0.426 -1.03,0.927 -2.393,0.786c-1.697,-0.176 -2.151,-1.748 -2.151,-1.748l5.114,0.096v0.001l2.286,-0.001c-0.001,0.001 0,0 0,0z"></path></g></g></svg>